<?xml version="1.0" encoding="UTF-8" standalone="no"?>
<!DOCTYPE svg PUBLIC "-//W3C//DTD SVG 1.1//EN" "http://www.w3.org/Graphics/SVG/1.1/DTD/svg11.dtd">
<svg version="1.1" xmlns="http://www.w3.org/2000/svg" xmlns:xlink="http://www.w3.org/1999/xlink" preserveAspectRatio="xMidYMid meet" viewBox="-0.9999999999999911 -1.0000000000000115 133.38944769988302 196.80900071669868" width="134.22" height="200"><defs><path d="M28.99 83.68C28.99 83.93 28.98 85.15 28.97 87.35C28.45 87.69 28.16 87.88 28.1 87.92C17.54 95.01 7.29 110.32 2.31 126.48C0.91 131.02 -0.11 136.36 0.01 138.66C0.04 139.31 0.09 139.09 0.14 138.04C0.72 127.68 7.15 112.2 15.53 100.98C17.29 98.64 21.29 94.12 22.11 93.56C22.16 93.53 22.38 93.38 22.8 93.11C22.98 94.88 23.09 95.86 23.11 96.06C24.23 106.74 26.76 129.02 27.5 134.76C27.75 136.63 28.49 138.76 29.43 140.31C29.48 140.39 29.73 140.8 30.17 141.53C29.83 141.58 29.64 141.6 29.6 141.61C26.91 141.98 22.18 143.57 16.65 145.92C14.35 146.91 11.98 147.86 11.37 148.07C8.42 149.05 5.95 149.27 4.31 148.69C1.89 147.85 0.32 144.95 0.11 140.97C0.07 139.96 0.07 139.96 0.02 140.8C-0.03 141.91 0.37 144.27 0.81 145.41C2.44 149.55 5.88 151.32 10.43 150.37C12.51 149.93 13.54 149.57 18.21 147.58C25.22 144.59 28.41 143.6 33.6 142.8C33.77 142.77 34.61 142.64 36.14 142.41C36.64 143.04 36.92 143.39 36.98 143.46C39.51 146.61 42.71 148.49 47.68 149.68C48.35 149.83 48.94 150.01 48.96 150.03C49 150.08 48.67 150.55 48.22 151.11C45.36 154.65 44 159.01 44.41 163.32C45.24 172.26 51.64 185.2 57.39 189.64C62.13 193.29 65.77 193.75 70.05 191.23C76.31 187.52 82.66 176.69 84.82 166.06C85.98 160.24 84.98 155.66 81.52 151.32C80.86 150.47 80.3 149.73 80.29 149.69C80.27 149.65 80.85 149.5 81.56 149.33C85.02 148.56 88.69 146.78 90.91 144.81C91 144.74 91.44 144.34 92.24 143.63C93.42 143.67 94.07 143.69 94.21 143.69C99.56 143.86 104.76 145.08 111.32 147.73C114.58 149.06 117.47 149.98 119.19 150.26C119.28 150.27 119.77 150.36 120.64 150.51C121.41 149.71 121.84 149.26 121.93 149.18C122.75 148.35 123.06 147.93 122.79 148.09C121.44 148.8 119.61 149.01 117.64 148.64C115.93 148.32 113.97 147.67 109.76 145.99C104.7 144 101.29 143.04 96.65 142.34C96.24 142.26 96.24 142.24 96.71 141.76C97.51 140.96 98.39 139.28 98.93 137.6C99.25 136.54 99.72 133.27 100.29 127.77C101.07 120.55 102.9 102.13 103.51 95.68C103.53 95.53 103.59 94.78 103.72 93.43C104.32 93.92 104.66 94.19 104.72 94.24C107.44 96.47 110.7 100.06 113.31 103.7C121.73 115.39 127.55 132.45 126.27 141.68C126.08 143.03 125.61 144.62 125.08 145.65C124.74 146.28 124.96 146.12 127.05 144.01C127.2 143.86 127.98 143.08 129.39 141.68C129.37 139.85 129.36 138.84 129.36 138.63C129.37 136.97 129.21 134.74 129.03 133.67C126.81 120.21 119.17 104.88 110.17 95.87C107.6 93.3 106.04 92.07 103.14 90.27C103.01 90.19 102.38 89.81 101.24 89.12C101.21 86.26 101.2 84.67 101.19 84.35C101.12 78.97 100.8 74.97 100.06 69.79C96.84 47.26 86.07 22.84 71.95 6.06C69.36 2.99 66.19 0.38 64.69 0.07C63.52 -0.17 62.85 0.16 61.38 1.67C60.11 2.97 60.1 3.01 60.94 2.39C62.57 1.15 63.08 1.23 65.4 3.04C69.07 5.95 74.8 13.39 79.71 21.59C88.29 35.98 94.24 52 96.81 67.75C98.29 76.79 98.67 85.27 98.14 97.95C97.7 108.77 96.89 116.51 94.94 129.04C94.16 133.98 93.63 135.9 92.2 138.9C91.25 140.86 91.19 140.92 89.2 142.93C87.35 144.79 87.06 145.03 85.65 145.74C83.57 146.81 80.6 147.74 77.7 148.28C76.36 148.51 75.26 148.75 75.25 148.82C75.25 148.87 75.86 149.39 76.61 149.97C78.21 151.24 79.84 153.18 80.73 154.89C83.05 159.35 82.79 165.01 79.94 172.7C76.46 182.01 71.08 188.99 66 190.8C62.12 192.18 57.94 190.32 54.01 185.5C49.3 179.71 45.44 170.78 44.61 163.74C44.19 160.17 44.89 156.85 46.71 153.86C47.47 152.62 47.94 152.07 49.41 150.67C50.38 149.74 51.14 148.96 51.08 148.9C51.03 148.85 50.83 148.84 50.61 148.86C50 148.91 45.63 148.02 44.1 147.53C41.38 146.63 40.06 145.87 38.31 144.16C36.31 142.2 35.51 140.79 33.99 136.56C33.13 134.14 31.07 120.57 30.25 111.7C29.16 99.93 28.81 84.31 29.48 76.57C30.68 62.56 34.2 48.71 40.04 35.05C44.73 24.03 51.56 12.51 57.29 5.96C57.64 5.55 57.2 5.93 56.36 6.79C55.2 7.93 54.31 9.01 52.92 10.98C38.58 31.48 29.26 59.84 28.99 83.68Z" id="b31tEJMVud"></path></defs><g><g><use xlink:href="#b31tEJMVud" opacity="1" fill="#000000" fill-opacity="1"></use><g><use xlink:href="#b31tEJMVud" opacity="1" fill-opacity="0" stroke="#000000" stroke-width="1" stroke-opacity="0"></use></g></g></g></svg>
