<?xml version="1.0" encoding="UTF-8" standalone="no"?>
<!DOCTYPE svg PUBLIC "-//W3C//DTD SVG 1.1//EN" "http://www.w3.org/Graphics/SVG/1.1/DTD/svg11.dtd">
<svg version="1.1" xmlns="http://www.w3.org/2000/svg" xmlns:xlink="http://www.w3.org/1999/xlink" preserveAspectRatio="xMidYMid meet" viewBox="-0.9999999999999911 -1.0000000000000115 133.38944769988302 196.80900071669868" width="134.22" height="200">
    <defs>
        <path d="M28.99 83.68
        C28.99 83.93 28.98 85.15 28.97 87.35
        C28.45 87.69 28.16 87.88 28.1 87.92
        C17.54 95.01 7.29 110.32 2.31 126.48
        C0.91 131.02 -0.11 136.36 0.01 138.66
        C0.04 139.31 0.09 139.09 0.14 138.04
        C0.07 139.96 0.07 139.96 0.02 140.8
        C-0.03 141.91 0.37 144.27 0.81 145.41
        C2.44 149.55 5.88 151.32 10.43 150.37
        C12.51 149.93 13.54 149.57 18.21 147.58
        C25.22 144.59 28.41 143.6 33.6 142.8
        C33.77 142.77 34.61 142.64 36.14 142.41
        C36.64 143.04 36.92 143.39 36.98 143.46
        C39.51 146.61 42.71 148.49 47.68 149.68
        C48.35 149.83 48.94 150.01 48.96 150.03
        C49 150.08 48.67 150.55 48.22 151.11
        C45.36 154.65 44 159.01 44.41 163.32
        C45.24 172.26 51.64 185.2 57.39 189.64
        C62.13 193.29 65.77 193.75 70.05 191.23
        C76.31 187.52 82.66 176.69 84.82 166.06
        C85.98 160.24 84.98 155.66 81.52 151.32
        C80.86 150.47 80.3 149.73 80.29 149.69
        C80.27 149.65 80.85 149.5 81.56 149.33
        C85.02 148.56 88.69 146.78 90.91 144.81
        C91 144.74 91.44 144.34 92.24 143.63
        C93.42 143.67 94.07 143.69 94.21 143.69
        C99.56 143.86 104.76 145.08 111.32 147.73
        C114.58 149.06 117.47 149.98 119.19 150.26
        C119.28 150.27 119.77 150.36 120.64 150.51
        C124.74 146.28 124.96 146.12 127.05 144.01
        C127.2 143.86 127.98 143.08 129.39 141.68
        C129.37 139.85 129.36 138.84 129.36 138.63
        C129.37 136.97 129.21 134.74 129.03 133.67
        C126.81 120.21 119.17 104.88 110.17 95.87
        C107.6 93.3 106.04 92.07 103.14 90.27
        C103.01 90.19 102.38 89.81 101.24 89.12
        C101.21 86.26 101.2 84.67 101.19 84.35
        C101.12 78.97 100.8 74.97 100.06 69.79
        C96.84 47.26 86.07 22.84 71.95 6.06
        C69.36 2.99 66.19 0.38 64.69 0.07
        C63.52 -0.17 62.85 0.16 61.38 1.67
        C60.11 2.97 60.1 3.01 60.94 2.39
        C57.64 5.55 57.2 5.93 56.36 6.79
        C55.2 7.93 54.31 9.01 52.92 10.98
        C38.58 31.48 29.26 59.84 28.99 83.68
        Z" id="b31tEJMVud"/>
    </defs>
    <use xlink:href="#b31tEJMVud"
    opacity="1"
    fill="#000000"
    fill-opacity="1"/>
</svg>
