<?xml version="1.0" standalone="no"?>
<!DOCTYPE svg PUBLIC "-//W3C//DTD SVG 20010904//EN"
 "http://www.w3.org/TR/2001/REC-SVG-20010904/DTD/svg10.dtd">
<svg version="1.0" xmlns="http://www.w3.org/2000/svg"
 width="1024.000000pt" height="768.000000pt" viewBox="0 0 1024.000000 768.000000"
 preserveAspectRatio="xMidYMid meet">
<metadata>
Created by potrace 1.15, written by Peter Selinger 2001-2017
</metadata>
<g transform="translate(0.000000,768.000000) scale(0.100000,-0.100000)"
fill="#000000" stroke="none">
<path d="M8208 7650 c-1289 -222 -2685 -920 -3580 -1788 l-137 -134 -53 11
c-652 131 -1598 -52 -2381 -462 -220 -115 -456 -274 -537 -363 -23 -25 -13
-19 28 18 406 360 1217 691 1942 793 152 21 467 39 518 29 l42 -9 -98 -120
c-355 -435 -1089 -1349 -1275 -1588 -60 -78 -112 -184 -135 -276 l-18 -72 -24
18 c-113 86 -346 203 -637 322 -121 49 -244 102 -274 117 -145 73 -244 157
-283 239 -58 121 -8 286 132 440 36 39 36 39 3 10 -43 -39 -116 -141 -142
-199 -94 -213 -33 -406 170 -540 93 -61 144 -86 390 -186 369 -150 523 -232
744 -395 l108 -80 -8 -70 c-24 -210 24 -398 163 -626 19 -31 34 -59 34 -61 0
-3 -30 -8 -67 -12 -237 -24 -449 -134 -594 -308 -301 -360 -546 -1074 -499
-1451 39 -310 156 -462 407 -528 368 -96 1004 67 1478 378 259 171 392 377
426 665 7 56 14 104 15 106 1 2 28 -14 60 -34 156 -100 357 -171 512 -181 l93
-6 70 -75 c191 -205 337 -443 480 -784 71 -170 143 -311 196 -385 l44 -63 97
1 c61 0 88 4 72 8 -76 24 -151 84 -210 171 -51 75 -99 172 -192 390 -112 261
-202 423 -347 621 -12 18 -11 19 24 19 59 0 154 29 236 71 51 27 190 130 415
311 297 237 1048 847 1310 1062 l91 75 7 -67 c17 -183 4 -436 -35 -667 -124
-743 -543 -1587 -933 -1879 -57 -43 -133 -84 -191 -102 -36 -11 -22 -13 133
-13 l173 -1 112 113 c62 61 139 149 172 195 418 578 706 1426 709 2092 1 190
-11 293 -51 467 l-27 113 175 177 c197 201 334 360 499 578 718 949 1228 2248
1331 3390 19 209 -1 423 -45 490 -34 52 -71 65 -181 64 -95 -1 -97 -2 -43 -10
106 -15 122 -37 140 -190 27 -243 -38 -730 -162 -1214 -218 -848 -594 -1659
-1084 -2334 -281 -388 -582 -714 -1072 -1161 -418 -382 -735 -637 -1272 -1026
-212 -153 -303 -204 -467 -261 -108 -37 -112 -37 -260 -37 -137 0 -157 2 -235
28 -116 38 -260 114 -387 202 -58 41 -107 73 -110 71 -2 -2 1 -44 7 -93 12
-106 0 -238 -31 -334 -80 -250 -300 -449 -690 -626 -474 -214 -931 -271 -1185
-149 -194 93 -279 317 -245 640 42 388 231 860 462 1150 117 147 266 243 444
286 74 17 112 20 218 17 70 -2 127 -1 127 3 0 4 -7 12 -16 19 -24 21 -152 216
-190 291 -67 134 -87 211 -88 339 -1 146 22 228 123 440 58 121 486 697 785
1054 397 474 964 1062 1276 1322 564 471 1208 850 1930 1136 582 232 1261 402
1715 431 28 2 -2 4 -65 4 -85 1 -158 -6 -282 -27z"/>
</g>
</svg>
